<svg width="1200" height="400" viewBox="0 0 1200 400" fill="none" xmlns="http://www.w3.org/2000/svg">
<g filter="url(#filter0_d)">
<path d="M418.25 153.82C424.91 153.82 430.73 155.14 435.71 157.78C440.69 160.42 444.53 164.14 447.23 168.94C449.99 173.68 451.37 179.17 451.37 185.41C451.37 191.59 449.99 197.08 447.23 201.88C444.53 206.68 440.66 210.4 435.62 213.04C430.64 215.68 424.85 217 418.25 217H394.58V153.82H418.25ZM417.26 203.68C423.08 203.68 427.61 202.09 430.85 198.91C434.09 195.73 435.71 191.23 435.71 185.41C435.71 179.59 434.09 175.06 430.85 171.82C427.61 168.58 423.08 166.96 417.26 166.96H409.97V203.68H417.26ZM507.311 191.08C507.311 192.52 507.221 194.02 507.041 195.58H472.211C472.451 198.7 473.441 201.1 475.181 202.78C476.981 204.4 479.171 205.21 481.751 205.21C485.591 205.21 488.261 203.59 489.761 200.35H506.141C505.301 203.65 503.771 206.62 501.551 209.26C499.391 211.9 496.661 213.97 493.361 215.47C490.061 216.97 486.371 217.72 482.291 217.72C477.371 217.72 472.991 216.67 469.151 214.57C465.311 212.47 462.311 209.47 460.151 205.57C457.991 201.67 456.911 197.11 456.911 191.89C456.911 186.67 457.961 182.11 460.061 178.21C462.221 174.31 465.221 171.31 469.061 169.21C472.901 167.11 477.311 166.06 482.291 166.06C487.151 166.06 491.471 167.08 495.251 169.12C499.031 171.16 501.971 174.07 504.071 177.85C506.231 181.63 507.311 186.04 507.311 191.08ZM491.561 187.03C491.561 184.39 490.661 182.29 488.861 180.73C487.061 179.17 484.811 178.39 482.111 178.39C479.531 178.39 477.341 179.14 475.541 180.64C473.801 182.14 472.721 184.27 472.301 187.03H491.561ZM538.02 202.6L548.91 166.78H565.29L547.47 217H528.48L510.66 166.78H527.13L538.02 202.6ZM570.598 205.3V192.88L599.038 152.2H616.228V191.98H623.608V205.3H616.228V217H600.838V205.3H570.598ZM601.918 169.12L586.798 191.98H601.918V169.12ZM696.756 166.24C702.996 166.24 707.946 168.13 711.606 171.91C715.326 175.69 717.186 180.94 717.186 187.66V217H701.886V189.73C701.886 186.49 701.016 184 699.276 182.26C697.596 180.46 695.256 179.56 692.256 179.56C689.256 179.56 686.886 180.46 685.146 182.26C683.466 184 682.626 186.49 682.626 189.73V217H667.326V189.73C667.326 186.49 666.456 184 664.716 182.26C663.036 180.46 660.696 179.56 657.696 179.56C654.696 179.56 652.326 180.46 650.586 182.26C648.906 184 648.066 186.49 648.066 189.73V217H632.676V166.78H648.066V173.08C649.626 170.98 651.666 169.33 654.186 168.13C656.706 166.87 659.556 166.24 662.736 166.24C666.516 166.24 669.876 167.05 672.816 168.67C675.816 170.29 678.156 172.6 679.836 175.6C681.576 172.84 683.946 170.59 686.946 168.85C689.946 167.11 693.216 166.24 696.756 166.24ZM792.471 153.82V166.15H775.731V217H760.341V166.15H743.601V153.82H792.471ZM872.285 166.78L858.695 217H841.685L833.765 184.42L825.575 217H808.655L794.975 166.78H810.365L817.475 202.69L825.935 166.78H842.225L850.775 202.51L857.795 166.78H872.285ZM925.494 191.08C925.494 192.52 925.404 194.02 925.224 195.58H890.394C890.634 198.7 891.624 201.1 893.364 202.78C895.164 204.4 897.354 205.21 899.934 205.21C903.774 205.21 906.444 203.59 907.944 200.35H924.324C923.484 203.65 921.954 206.62 919.734 209.26C917.574 211.9 914.844 213.97 911.544 215.47C908.244 216.97 904.554 217.72 900.474 217.72C895.554 217.72 891.174 216.67 887.334 214.57C883.494 212.47 880.494 209.47 878.334 205.57C876.174 201.67 875.094 197.11 875.094 191.89C875.094 186.67 876.144 182.11 878.244 178.21C880.404 174.31 883.404 171.31 887.244 169.21C891.084 167.11 895.494 166.06 900.474 166.06C905.334 166.06 909.654 167.08 913.434 169.12C917.214 171.16 920.154 174.07 922.254 177.85C924.414 181.63 925.494 186.04 925.494 191.08ZM909.744 187.03C909.744 184.39 908.844 182.29 907.044 180.73C905.244 179.17 902.994 178.39 900.294 178.39C897.714 178.39 895.524 179.14 893.724 180.64C891.984 182.14 890.904 184.27 890.484 187.03H909.744ZM930.553 191.8C930.553 186.64 931.513 182.11 933.433 178.21C935.413 174.31 938.083 171.31 941.443 169.21C944.803 167.11 948.553 166.06 952.693 166.06C956.233 166.06 959.323 166.78 961.963 168.22C964.663 169.66 966.733 171.55 968.173 173.89V166.78H983.563V217H968.173V209.89C966.673 212.23 964.573 214.12 961.873 215.56C959.233 217 956.143 217.72 952.603 217.72C948.523 217.72 944.803 216.67 941.443 214.57C938.083 212.41 935.413 209.38 933.433 205.48C931.513 201.52 930.553 196.96 930.553 191.8ZM968.173 191.89C968.173 188.05 967.093 185.02 964.933 182.8C962.833 180.58 960.253 179.47 957.193 179.47C954.133 179.47 951.523 180.58 949.363 182.8C947.263 184.96 946.213 187.96 946.213 191.8C946.213 195.64 947.263 198.7 949.363 200.98C951.523 203.2 954.133 204.31 957.193 204.31C960.253 204.31 962.833 203.2 964.933 200.98C967.093 198.76 968.173 195.73 968.173 191.89ZM1025.39 217L1010.09 195.94V217H994.697V150.4H1010.09V187.21L1025.3 166.78H1044.29L1023.41 191.98L1044.47 217H1025.39ZM1070.76 217.72C1066.38 217.72 1062.48 216.97 1059.06 215.47C1055.64 213.97 1052.94 211.93 1050.96 209.35C1048.98 206.71 1047.87 203.77 1047.63 200.53H1062.84C1063.02 202.27 1063.83 203.68 1065.27 204.76C1066.71 205.84 1068.48 206.38 1070.58 206.38C1072.5 206.38 1073.97 206.02 1074.99 205.3C1076.07 204.52 1076.61 203.53 1076.61 202.33C1076.61 200.89 1075.86 199.84 1074.36 199.18C1072.86 198.46 1070.43 197.68 1067.07 196.84C1063.47 196 1060.47 195.13 1058.07 194.23C1055.67 193.27 1053.6 191.8 1051.86 189.82C1050.12 187.78 1049.25 185.05 1049.25 181.63C1049.25 178.75 1050.03 176.14 1051.59 173.8C1053.21 171.4 1055.55 169.51 1058.61 168.13C1061.73 166.75 1065.42 166.06 1069.68 166.06C1075.98 166.06 1080.93 167.62 1084.53 170.74C1088.19 173.86 1090.29 178 1090.83 183.16H1076.61C1076.37 181.42 1075.59 180.04 1074.27 179.02C1073.01 178 1071.33 177.49 1069.23 177.49C1067.43 177.49 1066.05 177.85 1065.09 178.57C1064.13 179.23 1063.65 180.16 1063.65 181.36C1063.65 182.8 1064.4 183.88 1065.9 184.6C1067.46 185.32 1069.86 186.04 1073.1 186.76C1076.82 187.72 1079.85 188.68 1082.19 189.64C1084.53 190.54 1086.57 192.04 1088.31 194.14C1090.11 196.18 1091.04 198.94 1091.1 202.42C1091.1 205.36 1090.26 208 1088.58 210.34C1086.96 212.62 1084.59 214.42 1081.47 215.74C1078.41 217.06 1074.84 217.72 1070.76 217.72Z" fill="#8F8F8F"/>
<path d="M403.78 233.23C404.54 233.35 405.23 233.66 405.85 234.16C406.49 234.66 406.99 235.28 407.35 236.02C407.73 236.76 407.92 237.55 407.92 238.39C407.92 239.45 407.65 240.41 407.11 241.27C406.57 242.11 405.78 242.78 404.74 243.28C403.72 243.76 402.51 244 401.11 244H393.31V223.09H400.81C402.23 223.09 403.44 223.33 404.44 223.81C405.44 224.27 406.19 224.9 406.69 225.7C407.19 226.5 407.44 227.4 407.44 228.4C407.44 229.64 407.1 230.67 406.42 231.49C405.76 232.29 404.88 232.87 403.78 233.23ZM396.04 232.12H400.63C401.91 232.12 402.9 231.82 403.6 231.22C404.3 230.62 404.65 229.79 404.65 228.73C404.65 227.67 404.3 226.84 403.6 226.24C402.9 225.64 401.89 225.34 400.57 225.34H396.04V232.12ZM400.87 241.75C402.23 241.75 403.29 241.43 404.05 240.79C404.81 240.15 405.19 239.26 405.19 238.12C405.19 236.96 404.79 236.05 403.99 235.39C403.19 234.71 402.12 234.37 400.78 234.37H396.04V241.75H400.87ZM414.438 230.23C414.918 229.29 415.598 228.56 416.478 228.04C417.378 227.52 418.468 227.26 419.748 227.26V230.08H419.028C415.968 230.08 414.438 231.74 414.438 235.06V244H411.708V227.56H414.438V230.23ZM424.31 224.89C423.79 224.89 423.35 224.71 422.99 224.35C422.63 223.99 422.45 223.55 422.45 223.03C422.45 222.51 422.63 222.07 422.99 221.71C423.35 221.35 423.79 221.17 424.31 221.17C424.81 221.17 425.23 221.35 425.57 221.71C425.93 222.07 426.11 222.51 426.11 223.03C426.11 223.55 425.93 223.99 425.57 224.35C425.23 224.71 424.81 224.89 424.31 224.89ZM425.63 227.56V244H422.9V227.56H425.63ZM438.293 227.26C440.293 227.26 441.913 227.87 443.153 229.09C444.393 230.29 445.013 232.03 445.013 234.31V244H442.313V234.7C442.313 233.06 441.903 231.81 441.083 230.95C440.263 230.07 439.143 229.63 437.723 229.63C436.283 229.63 435.133 230.08 434.273 230.98C433.433 231.88 433.013 233.19 433.013 234.91V244H430.283V227.56H433.013V229.9C433.553 229.06 434.283 228.41 435.203 227.95C436.143 227.49 437.173 227.26 438.293 227.26ZM456.252 227.29C457.672 227.29 458.912 227.6 459.972 228.22C461.052 228.84 461.852 229.62 462.372 230.56V227.56H465.132V244.36C465.132 245.86 464.812 247.19 464.172 248.35C463.532 249.53 462.612 250.45 461.412 251.11C460.232 251.77 458.852 252.1 457.272 252.1C455.112 252.1 453.312 251.59 451.872 250.57C450.432 249.55 449.582 248.16 449.322 246.4H452.022C452.322 247.4 452.942 248.2 453.882 248.8C454.822 249.42 455.952 249.73 457.272 249.73C458.772 249.73 459.992 249.26 460.932 248.32C461.892 247.38 462.372 246.06 462.372 244.36V240.91C461.832 241.87 461.032 242.67 459.972 243.31C458.912 243.95 457.672 244.27 456.252 244.27C454.792 244.27 453.462 243.91 452.262 243.19C451.082 242.47 450.152 241.46 449.472 240.16C448.792 238.86 448.452 237.38 448.452 235.72C448.452 234.04 448.792 232.57 449.472 231.31C450.152 230.03 451.082 229.04 452.262 228.34C453.462 227.64 454.792 227.29 456.252 227.29ZM462.372 235.75C462.372 234.51 462.122 233.43 461.622 232.51C461.122 231.59 460.442 230.89 459.582 230.41C458.742 229.91 457.812 229.66 456.792 229.66C455.772 229.66 454.842 229.9 454.002 230.38C453.162 230.86 452.492 231.56 451.992 232.48C451.492 233.4 451.242 234.48 451.242 235.72C451.242 236.98 451.492 238.08 451.992 239.02C452.492 239.94 453.162 240.65 454.002 241.15C454.842 241.63 455.772 241.87 456.792 241.87C457.812 241.87 458.742 241.63 459.582 241.15C460.442 240.65 461.122 239.94 461.622 239.02C462.122 238.08 462.372 236.99 462.372 235.75ZM471.156 224.89C470.636 224.89 470.196 224.71 469.836 224.35C469.476 223.99 469.296 223.55 469.296 223.03C469.296 222.51 469.476 222.07 469.836 221.71C470.196 221.35 470.636 221.17 471.156 221.17C471.656 221.17 472.076 221.35 472.416 221.71C472.776 222.07 472.956 222.51 472.956 223.03C472.956 223.55 472.776 223.99 472.416 224.35C472.076 224.71 471.656 224.89 471.156 224.89ZM472.476 227.56V244H469.746V227.56H472.476ZM485.138 227.26C487.138 227.26 488.758 227.87 489.998 229.09C491.238 230.29 491.858 232.03 491.858 234.31V244H489.158V234.7C489.158 233.06 488.748 231.81 487.928 230.95C487.108 230.07 485.988 229.63 484.568 229.63C483.128 229.63 481.978 230.08 481.118 230.98C480.278 231.88 479.858 233.19 479.858 234.91V244H477.128V227.56H479.858V229.9C480.398 229.06 481.128 228.41 482.048 227.95C482.988 227.49 484.018 227.26 485.138 227.26ZM503.098 227.29C504.518 227.29 505.758 227.6 506.818 228.22C507.898 228.84 508.698 229.62 509.218 230.56V227.56H511.978V244.36C511.978 245.86 511.658 247.19 511.018 248.35C510.378 249.53 509.458 250.45 508.258 251.11C507.078 251.77 505.698 252.1 504.118 252.1C501.958 252.1 500.158 251.59 498.718 250.57C497.278 249.55 496.428 248.16 496.168 246.4H498.868C499.168 247.4 499.788 248.2 500.728 248.8C501.668 249.42 502.798 249.73 504.118 249.73C505.618 249.73 506.838 249.26 507.778 248.32C508.738 247.38 509.218 246.06 509.218 244.36V240.91C508.678 241.87 507.878 242.67 506.818 243.31C505.758 243.95 504.518 244.27 503.098 244.27C501.638 244.27 500.308 243.91 499.108 243.19C497.928 242.47 496.998 241.46 496.318 240.16C495.638 238.86 495.298 237.38 495.298 235.72C495.298 234.04 495.638 232.57 496.318 231.31C496.998 230.03 497.928 229.04 499.108 228.34C500.308 227.64 501.638 227.29 503.098 227.29ZM509.218 235.75C509.218 234.51 508.968 233.43 508.468 232.51C507.968 231.59 507.288 230.89 506.428 230.41C505.588 229.91 504.658 229.66 503.638 229.66C502.618 229.66 501.688 229.9 500.848 230.38C500.008 230.86 499.338 231.56 498.838 232.48C498.338 233.4 498.088 234.48 498.088 235.72C498.088 236.98 498.338 238.08 498.838 239.02C499.338 239.94 500.008 240.65 500.848 241.15C501.688 241.63 502.618 241.87 503.638 241.87C504.658 241.87 505.588 241.63 506.428 241.15C507.288 240.65 507.968 239.94 508.468 239.02C508.968 238.08 509.218 236.99 509.218 235.75ZM523.569 235.72C523.569 234.04 523.909 232.57 524.589 231.31C525.269 230.03 526.199 229.04 527.379 228.34C528.579 227.64 529.909 227.29 531.369 227.29C532.809 227.29 534.059 227.6 535.119 228.22C536.179 228.84 536.969 229.62 537.489 230.56V227.56H540.249V244H537.489V240.94C536.949 241.9 536.139 242.7 535.059 243.34C533.999 243.96 532.759 244.27 531.339 244.27C529.879 244.27 528.559 243.91 527.379 243.19C526.199 242.47 525.269 241.46 524.589 240.16C523.909 238.86 523.569 237.38 523.569 235.72ZM537.489 235.75C537.489 234.51 537.239 233.43 536.739 232.51C536.239 231.59 535.559 230.89 534.699 230.41C533.859 229.91 532.929 229.66 531.909 229.66C530.889 229.66 529.959 229.9 529.119 230.38C528.279 230.86 527.609 231.56 527.109 232.48C526.609 233.4 526.359 234.48 526.359 235.72C526.359 236.98 526.609 238.08 527.109 239.02C527.609 239.94 528.279 240.65 529.119 241.15C529.959 241.63 530.889 241.87 531.909 241.87C532.929 241.87 533.859 241.63 534.699 241.15C535.559 240.65 536.239 239.94 536.739 239.02C537.239 238.08 537.489 236.99 537.489 235.75ZM555.591 230.62C556.151 229.64 556.971 228.84 558.051 228.22C559.131 227.6 560.361 227.29 561.741 227.29C563.221 227.29 564.551 227.64 565.731 228.34C566.911 229.04 567.841 230.03 568.521 231.31C569.201 232.57 569.541 234.04 569.541 235.72C569.541 237.38 569.201 238.86 568.521 240.16C567.841 241.46 566.901 242.47 565.701 243.19C564.521 243.91 563.201 244.27 561.741 244.27C560.321 244.27 559.071 243.96 557.991 243.34C556.931 242.72 556.131 241.93 555.591 240.97V244H552.861V221.8H555.591V230.62ZM566.751 235.72C566.751 234.48 566.501 233.4 566.001 232.48C565.501 231.56 564.821 230.86 563.961 230.38C563.121 229.9 562.191 229.66 561.171 229.66C560.171 229.66 559.241 229.91 558.381 230.41C557.541 230.89 556.861 231.6 556.341 232.54C555.841 233.46 555.591 234.53 555.591 235.75C555.591 236.99 555.841 238.08 556.341 239.02C556.861 239.94 557.541 240.65 558.381 241.15C559.241 241.63 560.171 241.87 561.171 241.87C562.191 241.87 563.121 241.63 563.961 241.15C564.821 240.65 565.501 239.94 566.001 239.02C566.501 238.08 566.751 236.98 566.751 235.72ZM588.134 235.15C588.134 235.67 588.104 236.22 588.044 236.8H574.904C575.004 238.42 575.554 239.69 576.554 240.61C577.574 241.51 578.804 241.96 580.244 241.96C581.424 241.96 582.404 241.69 583.184 241.15C583.984 240.59 584.544 239.85 584.864 238.93H587.804C587.364 240.51 586.484 241.8 585.164 242.8C583.844 243.78 582.204 244.27 580.244 244.27C578.684 244.27 577.284 243.92 576.044 243.22C574.824 242.52 573.864 241.53 573.164 240.25C572.464 238.95 572.114 237.45 572.114 235.75C572.114 234.05 572.454 232.56 573.134 231.28C573.814 230 574.764 229.02 575.984 228.34C577.224 227.64 578.644 227.29 580.244 227.29C581.804 227.29 583.184 227.63 584.384 228.31C585.584 228.99 586.504 229.93 587.144 231.13C587.804 232.31 588.134 233.65 588.134 235.15ZM585.314 234.58C585.314 233.54 585.084 232.65 584.624 231.91C584.164 231.15 583.534 230.58 582.734 230.2C581.954 229.8 581.084 229.6 580.124 229.6C578.744 229.6 577.564 230.04 576.584 230.92C575.624 231.8 575.074 233.02 574.934 234.58H585.314ZM595.068 229.81V239.5C595.068 240.3 595.238 240.87 595.578 241.21C595.918 241.53 596.508 241.69 597.348 241.69H599.358V244H596.898C595.378 244 594.238 243.65 593.478 242.95C592.718 242.25 592.338 241.1 592.338 239.5V229.81H590.208V227.56H592.338V223.42H595.068V227.56H599.358V229.81H595.068ZM605.995 229.81V239.5C605.995 240.3 606.165 240.87 606.505 241.21C606.845 241.53 607.435 241.69 608.275 241.69H610.285V244H607.825C606.305 244 605.165 243.65 604.405 242.95C603.645 242.25 603.265 241.1 603.265 239.5V229.81H601.135V227.56H603.265V223.42H605.995V227.56H610.285V229.81H605.995ZM628.593 235.15C628.593 235.67 628.563 236.22 628.503 236.8H615.363C615.463 238.42 616.013 239.69 617.013 240.61C618.033 241.51 619.263 241.96 620.703 241.96C621.883 241.96 622.863 241.69 623.643 241.15C624.443 240.59 625.003 239.85 625.323 238.93H628.263C627.823 240.51 626.943 241.8 625.623 242.8C624.303 243.78 622.663 244.27 620.703 244.27C619.143 244.27 617.743 243.92 616.503 243.22C615.283 242.52 614.323 241.53 613.623 240.25C612.923 238.95 612.573 237.45 612.573 235.75C612.573 234.05 612.913 232.56 613.593 231.28C614.273 230 615.223 229.02 616.443 228.34C617.683 227.64 619.103 227.29 620.703 227.29C622.263 227.29 623.643 227.63 624.843 228.31C626.043 228.99 626.963 229.93 627.603 231.13C628.263 232.31 628.593 233.65 628.593 235.15ZM625.773 234.58C625.773 233.54 625.543 232.65 625.083 231.91C624.623 231.15 623.993 230.58 623.193 230.2C622.413 229.8 621.543 229.6 620.583 229.6C619.203 229.6 618.023 230.04 617.043 230.92C616.083 231.8 615.533 233.02 615.393 234.58H625.773ZM634.927 230.23C635.407 229.29 636.087 228.56 636.967 228.04C637.867 227.52 638.957 227.26 640.237 227.26V230.08H639.517C636.457 230.08 634.927 231.74 634.927 235.06V244H632.197V227.56H634.927V230.23ZM666.386 235.15C666.386 235.67 666.356 236.22 666.296 236.8H653.156C653.256 238.42 653.806 239.69 654.806 240.61C655.826 241.51 657.056 241.96 658.496 241.96C659.676 241.96 660.656 241.69 661.436 241.15C662.236 240.59 662.796 239.85 663.116 238.93H666.056C665.616 240.51 664.736 241.8 663.416 242.8C662.096 243.78 660.456 244.27 658.496 244.27C656.936 244.27 655.536 243.92 654.296 243.22C653.076 242.52 652.116 241.53 651.416 240.25C650.716 238.95 650.366 237.45 650.366 235.75C650.366 234.05 650.706 232.56 651.386 231.28C652.066 230 653.016 229.02 654.236 228.34C655.476 227.64 656.896 227.29 658.496 227.29C660.056 227.29 661.436 227.63 662.636 228.31C663.836 228.99 664.756 229.93 665.396 231.13C666.056 232.31 666.386 233.65 666.386 235.15ZM663.566 234.58C663.566 233.54 663.336 232.65 662.876 231.91C662.416 231.15 661.786 230.58 660.986 230.2C660.206 229.8 659.336 229.6 658.376 229.6C656.996 229.6 655.816 230.04 654.836 230.92C653.876 231.8 653.326 233.02 653.186 234.58H663.566ZM678.57 244L674.67 237.88L670.92 244H668.07L673.38 235.84L668.07 227.56H671.16L675.06 233.65L678.78 227.56H681.63L676.35 235.69L681.66 244H678.57ZM687.075 230.59C687.615 229.65 688.415 228.87 689.475 228.25C690.555 227.61 691.805 227.29 693.225 227.29C694.685 227.29 696.005 227.64 697.185 228.34C698.385 229.04 699.325 230.03 700.005 231.31C700.685 232.57 701.025 234.04 701.025 235.72C701.025 237.38 700.685 238.86 700.005 240.16C699.325 241.46 698.385 242.47 697.185 243.19C696.005 243.91 694.685 244.27 693.225 244.27C691.825 244.27 690.585 243.96 689.505 243.34C688.445 242.7 687.635 241.91 687.075 240.97V251.8H684.345V227.56H687.075V230.59ZM698.235 235.72C698.235 234.48 697.985 233.4 697.485 232.48C696.985 231.56 696.305 230.86 695.445 230.38C694.605 229.9 693.675 229.66 692.655 229.66C691.655 229.66 690.725 229.91 689.865 230.41C689.025 230.89 688.345 231.6 687.825 232.54C687.325 233.46 687.075 234.53 687.075 235.75C687.075 236.99 687.325 238.08 687.825 239.02C688.345 239.94 689.025 240.65 689.865 241.15C690.725 241.63 691.655 241.87 692.655 241.87C693.675 241.87 694.605 241.63 695.445 241.15C696.305 240.65 696.985 239.94 697.485 239.02C697.985 238.08 698.235 236.98 698.235 235.72ZM719.619 235.15C719.619 235.67 719.589 236.22 719.529 236.8H706.389C706.489 238.42 707.039 239.69 708.039 240.61C709.059 241.51 710.289 241.96 711.729 241.96C712.909 241.96 713.889 241.69 714.669 241.15C715.469 240.59 716.029 239.85 716.349 238.93H719.289C718.849 240.51 717.969 241.8 716.649 242.8C715.329 243.78 713.689 244.27 711.729 244.27C710.169 244.27 708.769 243.92 707.529 243.22C706.309 242.52 705.349 241.53 704.649 240.25C703.949 238.95 703.599 237.45 703.599 235.75C703.599 234.05 703.939 232.56 704.619 231.28C705.299 230 706.249 229.02 707.469 228.34C708.709 227.64 710.129 227.29 711.729 227.29C713.289 227.29 714.669 227.63 715.869 228.31C717.069 228.99 717.989 229.93 718.629 231.13C719.289 232.31 719.619 233.65 719.619 235.15ZM716.799 234.58C716.799 233.54 716.569 232.65 716.109 231.91C715.649 231.15 715.019 230.58 714.219 230.2C713.439 229.8 712.569 229.6 711.609 229.6C710.229 229.6 709.049 230.04 708.069 230.92C707.109 231.8 706.559 233.02 706.419 234.58H716.799ZM725.952 230.23C726.432 229.29 727.112 228.56 727.992 228.04C728.892 227.52 729.982 227.26 731.262 227.26V230.08H730.542C727.482 230.08 725.952 231.74 725.952 235.06V244H723.222V227.56H725.952V230.23ZM735.824 224.89C735.304 224.89 734.864 224.71 734.504 224.35C734.144 223.99 733.964 223.55 733.964 223.03C733.964 222.51 734.144 222.07 734.504 221.71C734.864 221.35 735.304 221.17 735.824 221.17C736.324 221.17 736.744 221.35 737.084 221.71C737.444 222.07 737.624 222.51 737.624 223.03C737.624 223.55 737.444 223.99 737.084 224.35C736.744 224.71 736.324 224.89 735.824 224.89ZM737.144 227.56V244H734.414V227.56H737.144ZM756.796 235.15C756.796 235.67 756.766 236.22 756.706 236.8H743.566C743.666 238.42 744.216 239.69 745.216 240.61C746.236 241.51 747.466 241.96 748.906 241.96C750.086 241.96 751.066 241.69 751.846 241.15C752.646 240.59 753.206 239.85 753.526 238.93H756.466C756.026 240.51 755.146 241.8 753.826 242.8C752.506 243.78 750.866 244.27 748.906 244.27C747.346 244.27 745.946 243.92 744.706 243.22C743.486 242.52 742.526 241.53 741.826 240.25C741.126 238.95 740.776 237.45 740.776 235.75C740.776 234.05 741.116 232.56 741.796 231.28C742.476 230 743.426 229.02 744.646 228.34C745.886 227.64 747.306 227.29 748.906 227.29C750.466 227.29 751.846 227.63 753.046 228.31C754.246 228.99 755.166 229.93 755.806 231.13C756.466 232.31 756.796 233.65 756.796 235.15ZM753.976 234.58C753.976 233.54 753.746 232.65 753.286 231.91C752.826 231.15 752.196 230.58 751.396 230.2C750.616 229.8 749.746 229.6 748.786 229.6C747.406 229.6 746.226 230.04 745.246 230.92C744.286 231.8 743.736 233.02 743.596 234.58H753.976ZM768.41 227.26C770.41 227.26 772.03 227.87 773.27 229.09C774.51 230.29 775.13 232.03 775.13 234.31V244H772.43V234.7C772.43 233.06 772.02 231.81 771.2 230.95C770.38 230.07 769.26 229.63 767.84 229.63C766.4 229.63 765.25 230.08 764.39 230.98C763.55 231.88 763.13 233.19 763.13 234.91V244H760.4V227.56H763.13V229.9C763.67 229.06 764.4 228.41 765.32 227.95C766.26 227.49 767.29 227.26 768.41 227.26ZM778.569 235.75C778.569 234.05 778.909 232.57 779.589 231.31C780.269 230.03 781.209 229.04 782.409 228.34C783.629 227.64 785.019 227.29 786.579 227.29C788.599 227.29 790.259 227.78 791.559 228.76C792.879 229.74 793.749 231.1 794.169 232.84H791.229C790.949 231.84 790.399 231.05 789.579 230.47C788.779 229.89 787.779 229.6 786.579 229.6C785.019 229.6 783.759 230.14 782.799 231.22C781.839 232.28 781.359 233.79 781.359 235.75C781.359 237.73 781.839 239.26 782.799 240.34C783.759 241.42 785.019 241.96 786.579 241.96C787.779 241.96 788.779 241.68 789.579 241.12C790.379 240.56 790.929 239.76 791.229 238.72H794.169C793.729 240.4 792.849 241.75 791.529 242.77C790.209 243.77 788.559 244.27 786.579 244.27C785.019 244.27 783.629 243.92 782.409 243.22C781.209 242.52 780.269 241.53 779.589 240.25C778.909 238.97 778.569 237.47 778.569 235.75ZM812.812 235.15C812.812 235.67 812.782 236.22 812.722 236.8H799.582C799.682 238.42 800.232 239.69 801.232 240.61C802.252 241.51 803.482 241.96 804.922 241.96C806.102 241.96 807.082 241.69 807.862 241.15C808.662 240.59 809.222 239.85 809.542 238.93H812.482C812.042 240.51 811.162 241.8 809.842 242.8C808.522 243.78 806.882 244.27 804.922 244.27C803.362 244.27 801.962 243.92 800.722 243.22C799.502 242.52 798.542 241.53 797.842 240.25C797.142 238.95 796.792 237.45 796.792 235.75C796.792 234.05 797.132 232.56 797.812 231.28C798.492 230 799.442 229.02 800.662 228.34C801.902 227.64 803.322 227.29 804.922 227.29C806.482 227.29 807.862 227.63 809.062 228.31C810.262 228.99 811.182 229.93 811.822 231.13C812.482 232.31 812.812 233.65 812.812 235.15ZM809.992 234.58C809.992 233.54 809.762 232.65 809.302 231.91C808.842 231.15 808.212 230.58 807.412 230.2C806.632 229.8 805.762 229.6 804.802 229.6C803.422 229.6 802.242 230.04 801.262 230.92C800.302 231.8 799.752 233.02 799.612 234.58H809.992ZM827.744 229.81V239.5C827.744 240.3 827.914 240.87 828.254 241.21C828.594 241.53 829.184 241.69 830.024 241.69H832.034V244H829.574C828.054 244 826.914 243.65 826.154 242.95C825.394 242.25 825.014 241.1 825.014 239.5V229.81H822.884V227.56H825.014V223.42H827.744V227.56H832.034V229.81H827.744ZM842.511 244.27C840.971 244.27 839.571 243.92 838.311 243.22C837.071 242.52 836.091 241.53 835.371 240.25C834.671 238.95 834.321 237.45 834.321 235.75C834.321 234.07 834.681 232.59 835.401 231.31C836.141 230.01 837.141 229.02 838.401 228.34C839.661 227.64 841.071 227.29 842.631 227.29C844.191 227.29 845.601 227.64 846.861 228.34C848.121 229.02 849.111 230 849.831 231.28C850.571 232.56 850.941 234.05 850.941 235.75C850.941 237.45 850.561 238.95 849.801 240.25C849.061 241.53 848.051 242.52 846.771 243.22C845.491 243.92 844.071 244.27 842.511 244.27ZM842.511 241.87C843.491 241.87 844.411 241.64 845.271 241.18C846.131 240.72 846.821 240.03 847.341 239.11C847.881 238.19 848.151 237.07 848.151 235.75C848.151 234.43 847.891 233.31 847.371 232.39C846.851 231.47 846.171 230.79 845.331 230.35C844.491 229.89 843.581 229.66 842.601 229.66C841.601 229.66 840.681 229.89 839.841 230.35C839.021 230.79 838.361 231.47 837.861 232.39C837.361 233.31 837.111 234.43 837.111 235.75C837.111 237.09 837.351 238.22 837.831 239.14C838.331 240.06 838.991 240.75 839.811 241.21C840.631 241.65 841.531 241.87 842.511 241.87ZM865.859 229.81V239.5C865.859 240.3 866.029 240.87 866.369 241.21C866.709 241.53 867.299 241.69 868.139 241.69H870.149V244H867.689C866.169 244 865.029 243.65 864.269 242.95C863.509 242.25 863.129 241.1 863.129 239.5V229.81H860.999V227.56H863.129V223.42H865.859V227.56H870.149V229.81H865.859ZM881.616 227.26C882.856 227.26 883.976 227.53 884.976 228.07C885.976 228.59 886.756 229.38 887.316 230.44C887.896 231.5 888.186 232.79 888.186 234.31V244H885.486V234.7C885.486 233.06 885.076 231.81 884.256 230.95C883.436 230.07 882.316 229.63 880.896 229.63C879.456 229.63 878.306 230.08 877.446 230.98C876.606 231.88 876.186 233.19 876.186 234.91V244H873.456V221.8H876.186V229.9C876.726 229.06 877.466 228.41 878.406 227.95C879.366 227.49 880.436 227.26 881.616 227.26ZM907.646 235.15C907.646 235.67 907.616 236.22 907.556 236.8H894.416C894.516 238.42 895.066 239.69 896.066 240.61C897.086 241.51 898.316 241.96 899.756 241.96C900.936 241.96 901.916 241.69 902.696 241.15C903.496 240.59 904.056 239.85 904.376 238.93H907.316C906.876 240.51 905.996 241.8 904.676 242.8C903.356 243.78 901.716 244.27 899.756 244.27C898.196 244.27 896.796 243.92 895.556 243.22C894.336 242.52 893.376 241.53 892.676 240.25C891.976 238.95 891.626 237.45 891.626 235.75C891.626 234.05 891.966 232.56 892.646 231.28C893.326 230 894.276 229.02 895.496 228.34C896.736 227.64 898.156 227.29 899.756 227.29C901.316 227.29 902.696 227.63 903.896 228.31C905.096 228.99 906.016 229.93 906.656 231.13C907.316 232.31 907.646 233.65 907.646 235.15ZM904.826 234.58C904.826 233.54 904.596 232.65 904.136 231.91C903.676 231.15 903.046 230.58 902.246 230.2C901.466 229.8 900.596 229.6 899.636 229.6C898.256 229.6 897.076 230.04 896.096 230.92C895.136 231.8 894.586 233.02 894.446 234.58H904.826ZM918.228 235.72C918.228 234.04 918.568 232.57 919.248 231.31C919.928 230.03 920.858 229.04 922.038 228.34C923.238 227.64 924.578 227.29 926.058 227.29C927.338 227.29 928.528 227.59 929.628 228.19C930.728 228.77 931.568 229.54 932.148 230.5V221.8H934.908V244H932.148V240.91C931.608 241.89 930.808 242.7 929.748 243.34C928.688 243.96 927.448 244.27 926.028 244.27C924.568 244.27 923.238 243.91 922.038 243.19C920.858 242.47 919.928 241.46 919.248 240.16C918.568 238.86 918.228 237.38 918.228 235.72ZM932.148 235.75C932.148 234.51 931.898 233.43 931.398 232.51C930.898 231.59 930.218 230.89 929.358 230.41C928.518 229.91 927.588 229.66 926.568 229.66C925.548 229.66 924.618 229.9 923.778 230.38C922.938 230.86 922.268 231.56 921.768 232.48C921.268 233.4 921.018 234.48 921.018 235.72C921.018 236.98 921.268 238.08 921.768 239.02C922.268 239.94 922.938 240.65 923.778 241.15C924.618 241.63 925.548 241.87 926.568 241.87C927.588 241.87 928.518 241.63 929.358 241.15C930.218 240.65 930.898 239.94 931.398 239.02C931.898 238.08 932.148 236.99 932.148 235.75ZM954.521 235.15C954.521 235.67 954.491 236.22 954.431 236.8H941.291C941.391 238.42 941.941 239.69 942.941 240.61C943.961 241.51 945.191 241.96 946.631 241.96C947.811 241.96 948.791 241.69 949.571 241.15C950.371 240.59 950.931 239.85 951.251 238.93H954.191C953.751 240.51 952.871 241.8 951.551 242.8C950.231 243.78 948.591 244.27 946.631 244.27C945.071 244.27 943.671 243.92 942.431 243.22C941.211 242.52 940.251 241.53 939.551 240.25C938.851 238.95 938.501 237.45 938.501 235.75C938.501 234.05 938.841 232.56 939.521 231.28C940.201 230 941.151 229.02 942.371 228.34C943.611 227.64 945.031 227.29 946.631 227.29C948.191 227.29 949.571 227.63 950.771 228.31C951.971 228.99 952.891 229.93 953.531 231.13C954.191 232.31 954.521 233.65 954.521 235.15ZM951.701 234.58C951.701 233.54 951.471 232.65 951.011 231.91C950.551 231.15 949.921 230.58 949.121 230.2C948.341 229.8 947.471 229.6 946.511 229.6C945.131 229.6 943.951 230.04 942.971 230.92C942.011 231.8 941.461 233.02 941.321 234.58H951.701ZM964.244 241.48L969.344 227.56H972.254L965.804 244H962.624L956.174 227.56H959.114L964.244 241.48ZM981.631 229.81H978.181V244H975.451V229.81H973.321V227.56H975.451V226.39C975.451 224.55 975.921 223.21 976.861 222.37C977.821 221.51 979.351 221.08 981.451 221.08V223.36C980.251 223.36 979.401 223.6 978.901 224.08C978.421 224.54 978.181 225.31 978.181 226.39V227.56H981.631V229.81ZM991.984 244.27C990.444 244.27 989.044 243.92 987.784 243.22C986.544 242.52 985.564 241.53 984.844 240.25C984.144 238.95 983.794 237.45 983.794 235.75C983.794 234.07 984.154 232.59 984.874 231.31C985.614 230.01 986.614 229.02 987.874 228.34C989.134 227.64 990.544 227.29 992.104 227.29C993.664 227.29 995.074 227.64 996.334 228.34C997.594 229.02 998.584 230 999.304 231.28C1000.04 232.56 1000.41 234.05 1000.41 235.75C1000.41 237.45 1000.03 238.95 999.274 240.25C998.534 241.53 997.524 242.52 996.244 243.22C994.964 243.92 993.544 244.27 991.984 244.27ZM991.984 241.87C992.964 241.87 993.884 241.64 994.744 241.18C995.604 240.72 996.294 240.03 996.814 239.11C997.354 238.19 997.624 237.07 997.624 235.75C997.624 234.43 997.364 233.31 996.844 232.39C996.324 231.47 995.644 230.79 994.804 230.35C993.964 229.89 993.054 229.66 992.074 229.66C991.074 229.66 990.154 229.89 989.314 230.35C988.494 230.79 987.834 231.47 987.334 232.39C986.834 233.31 986.584 234.43 986.584 235.75C986.584 237.09 986.824 238.22 987.304 239.14C987.804 240.06 988.464 240.75 989.284 241.21C990.104 241.65 991.004 241.87 991.984 241.87ZM1006.73 230.23C1007.21 229.29 1007.89 228.56 1008.77 228.04C1009.67 227.52 1010.76 227.26 1012.04 227.26V230.08H1011.32C1008.26 230.08 1006.73 231.74 1006.73 235.06V244H1004V227.56H1006.73V230.23ZM1029.77 227.56V244H1027.04V241.57C1026.52 242.41 1025.79 243.07 1024.85 243.55C1023.93 244.01 1022.91 244.24 1021.79 244.24C1020.51 244.24 1019.36 243.98 1018.34 243.46C1017.32 242.92 1016.51 242.12 1015.91 241.06C1015.33 240 1015.04 238.71 1015.04 237.19V227.56H1017.74V236.83C1017.74 238.45 1018.15 239.7 1018.97 240.58C1019.79 241.44 1020.91 241.87 1022.33 241.87C1023.79 241.87 1024.94 241.42 1025.78 240.52C1026.62 239.62 1027.04 238.31 1027.04 236.59V227.56H1029.77ZM1054.15 227.26C1055.43 227.26 1056.57 227.53 1057.57 228.07C1058.57 228.59 1059.36 229.38 1059.94 230.44C1060.52 231.5 1060.81 232.79 1060.81 234.31V244H1058.11V234.7C1058.11 233.06 1057.7 231.81 1056.88 230.95C1056.08 230.07 1054.99 229.63 1053.61 229.63C1052.19 229.63 1051.06 230.09 1050.22 231.01C1049.38 231.91 1048.96 233.22 1048.96 234.94V244H1046.26V234.7C1046.26 233.06 1045.85 231.81 1045.03 230.95C1044.23 230.07 1043.14 229.63 1041.76 229.63C1040.34 229.63 1039.21 230.09 1038.37 231.01C1037.53 231.91 1037.11 233.22 1037.11 234.94V244H1034.38V227.56H1037.11V229.93C1037.65 229.07 1038.37 228.41 1039.27 227.95C1040.19 227.49 1041.2 227.26 1042.3 227.26C1043.68 227.26 1044.9 227.57 1045.96 228.19C1047.02 228.81 1047.81 229.72 1048.33 230.92C1048.79 229.76 1049.55 228.86 1050.61 228.22C1051.67 227.58 1052.85 227.26 1054.15 227.26Z" fill="#797979"/>
</g>
<g filter="url(#filter1_d)">
<path fill-rule="evenodd" clip-rule="evenodd" d="M164.275 93.4485C163.44 95.0695 142.872 171.66 142.872 173.148C142.872 173.781 145.636 176.911 150.277 181.535L157.681 188.914L188.805 197.257C210.466 203.064 220.158 205.458 220.682 205.132C221.109 204.866 222.313 201.422 223.461 197.185C225.705 188.903 225.894 188.452 227.112 188.453C227.579 188.453 248.609 193.987 273.845 200.752C299.081 207.515 320.265 213.05 320.92 213.05C321.701 213.05 322.262 212.652 322.551 211.893C323.233 210.1 339.154 150.438 339.154 149.677C339.154 148.778 324.625 134.438 323.341 134.069C316.097 131.989 166.317 92.068 165.757 92.068C165.333 92.068 164.666 92.689 164.275 93.4485ZM244.778 117.162C286.331 128.285 320.471 137.524 320.645 137.693C320.818 137.862 317.522 150.764 313.32 166.364C306.508 191.65 305.575 194.716 304.721 194.629C304.194 194.575 283.912 189.21 259.65 182.707C235.388 176.203 214.876 170.882 214.069 170.882C212.114 170.882 209.94 172.057 208.739 173.761C208.202 174.525 207.14 177.552 206.38 180.489C205.62 183.426 204.818 186.121 204.597 186.477C204.287 186.979 197.92 185.445 176.288 179.655C160.938 175.548 148.121 172.028 147.808 171.834C147.41 171.588 150.233 160.29 157.16 134.41C162.618 114.021 167.195 97.1497 167.333 96.9188C167.471 96.6874 167.953 96.5975 168.405 96.719C168.857 96.84 203.225 106.04 244.778 117.162ZM138.362 189.944C137.249 192.023 121.795 250.804 122.072 251.906C122.228 252.528 125.56 256.222 129.476 260.115L136.597 267.191L215.834 288.406C276.104 304.543 295.271 309.496 295.903 309.1C296.489 308.734 299.979 296.491 307.691 267.76L318.646 226.941L311.212 219.495C305.185 213.458 303.349 211.91 301.512 211.318C296.288 209.634 242.652 195.48 241.496 195.48C239.981 195.48 239.954 195.543 237.509 204.782C235.633 211.871 234.806 213.552 233.192 213.552C232.704 213.552 211.658 208.017 186.423 201.253C161.187 194.489 140.169 188.954 139.716 188.954C139.262 188.954 138.653 189.399 138.362 189.944ZM186.839 205.52C211.557 212.146 232.355 217.568 233.058 217.568C235.065 217.568 237.646 216.103 238.678 214.377C239.197 213.509 240.37 209.901 241.285 206.359L242.948 199.92L244.491 200.214C249.196 201.111 299.724 214.989 299.869 215.424C300.014 215.858 280.125 290.838 279.781 291.155C279.613 291.31 126.747 250.305 126.474 250.031C126.347 249.904 129.315 238.312 133.071 224.271C141.111 194.219 141.319 193.472 141.646 193.472C141.784 193.472 162.121 198.894 186.839 205.52Z" fill="#8F8F8F"/>
</g>
<defs>
<filter id="filter0_d" x="381.31" y="142.4" width="721.792" height="125.7" filterUnits="userSpaceOnUse" color-interpolation-filters="sRGB">
<feFlood flood-opacity="0" result="BackgroundImageFix"/>
<feColorMatrix in="SourceAlpha" type="matrix" values="0 0 0 0 0 0 0 0 0 0 0 0 0 0 0 0 0 0 127 0" result="hardAlpha"/>
<feOffset dy="4"/>
<feGaussianBlur stdDeviation="6"/>
<feComposite in2="hardAlpha" operator="out"/>
<feColorMatrix type="matrix" values="0 0 0 0 0 0 0 0 0 0 0 0 0 0 0 0 0 0 0.3 0"/>
<feBlend mode="normal" in2="BackgroundImageFix" result="effect1_dropShadow"/>
<feBlend mode="normal" in="SourceGraphic" in2="effect1_dropShadow" result="shape"/>
</filter>
<filter id="filter1_d" x="93" y="67" width="275" height="275" filterUnits="userSpaceOnUse" color-interpolation-filters="sRGB">
<feFlood flood-opacity="0" result="BackgroundImageFix"/>
<feColorMatrix in="SourceAlpha" type="matrix" values="0 0 0 0 0 0 0 0 0 0 0 0 0 0 0 0 0 0 127 0" result="hardAlpha"/>
<feOffset dy="4"/>
<feGaussianBlur stdDeviation="6"/>
<feColorMatrix type="matrix" values="0 0 0 0 0 0 0 0 0 0 0 0 0 0 0 0 0 0 0.3 0"/>
<feBlend mode="normal" in2="BackgroundImageFix" result="effect1_dropShadow"/>
<feBlend mode="normal" in="SourceGraphic" in2="effect1_dropShadow" result="shape"/>
</filter>
</defs>
</svg>
